<svg width="115" height="115" viewBox="0 0 115 115" fill="none" xmlns="http://www.w3.org/2000/svg">
<rect width="115" height="115" fill="#EAEAEA"/>
<path d="M86.61 90.92V76.46C86.61 76.14 86.42 75.85 86.12 75.73C85.82 75.61 85.48 75.68 85.26 75.9C84.13 77.03 82.63 77.65 81.04 77.65C80.6 77.65 80.25 78 80.25 78.44V93.12C80.25 93.56 80.6 93.91 81.04 93.91C82.52 93.91 83.52 94.5 84.04 95.67C84.17 95.96 84.45 96.14 84.76 96.14H89.91C90.12 96.14 90.33 96.05 90.48 95.9C90.63 95.75 90.71 95.54 90.7 95.32C90.7 95.29 90.52 91.39 86.61 90.92Z" fill="#CBCAC9" stroke="#263852" stroke-width="2" stroke-miterlimit="10"/>
<path d="M72.8398 77.87C72.7098 77.59 72.4298 77.41 72.1198 77.41H62.3198C62.0398 77.41 61.7798 77.56 61.6398 77.8C60.6698 79.44 59.0898 80.95 56.9598 82.29C56.7298 82.43 56.5898 82.69 56.5898 82.96V92.07C56.5898 94.32 58.4198 96.15 60.6698 96.15H67.1998C67.4098 96.15 67.6198 96.06 67.7698 95.91C67.9198 95.76 67.9998 95.55 67.9898 95.33C67.9898 95.29 67.7998 91.39 63.8998 90.92V84.49C65.4498 83.92 69.8798 82.08 72.7198 78.71C72.9298 78.47 72.9698 78.14 72.8398 77.87Z" fill="#CBCAC9" stroke="#263852" stroke-width="2" stroke-miterlimit="10"/>
<path d="M98.4593 52.32L92.2393 49.73L90.3593 47.24C88.7093 45.06 86.0893 43.75 83.3493 43.75C80.5593 43.75 78.0593 45.41 76.9793 47.98L71.7093 60.54H60.7393C58.8793 60.54 57.0793 61.04 55.4893 61.98C53.5893 60.78 52.2293 59.23 51.4593 57.37C49.4493 52.53 51.7993 46.83 51.8193 46.78C52.2893 45.68 51.7793 44.4 50.6893 43.93C49.5893 43.45 48.3093 43.96 47.8293 45.06L47.8093 45.1C47.3993 45.99 46.6493 47.84 46.1693 50.19C45.4493 53.73 45.6493 56.88 46.7593 59.57C47.8393 62.19 49.4993 64.46 51.5693 66.18C50.7793 67.76 50.4193 69.52 50.5293 71.3C50.5393 71.4 50.5393 71.5 50.5493 71.61C50.7693 74.33 48.9893 77.88 47.3993 80.09C46.3193 81.59 45.7493 83.34 45.7493 85.17V93.54C45.7493 95.79 47.5793 97.62 49.8293 97.62H56.3593C56.5693 97.62 56.7793 97.53 56.9293 97.38C57.0793 97.23 57.1593 97.02 57.1493 96.8C57.1493 96.76 56.9593 92.86 53.0593 92.39V85.96C54.7893 85.33 60.0693 83.13 62.7593 78.99H74.5093V93.53C74.5093 95.78 76.3393 97.61 78.5893 97.61H85.1193C85.3293 97.61 85.5393 97.52 85.6893 97.37C85.8393 97.22 85.9193 97.01 85.9093 96.79C85.9093 96.75 85.7193 92.85 81.8193 92.38V79.2C85.6093 78.8 88.5693 75.59 88.5693 71.7V60.34H91.5593C93.7393 60.34 95.7893 59.43 97.1793 57.84C98.3493 56.5 98.9393 54.89 98.9393 53.05C98.9493 52.73 98.7493 52.45 98.4593 52.32Z" fill="#CBCAC9" stroke="#263852" stroke-width="2" stroke-miterlimit="10"/>
<path d="M83.8203 59.27C83.7503 59.27 83.6803 59.26 83.6103 59.24C83.4403 59.19 79.3203 58.01 78.4703 53.34C78.3903 52.91 78.6803 52.5 79.1103 52.42C79.5403 52.34 79.9503 52.63 80.0303 53.06C80.5503 55.92 82.6403 57.13 83.5803 57.54C85.3103 55.14 84.1903 51.43 84.1703 51.39C84.0403 50.97 84.2703 50.53 84.6903 50.4C85.1103 50.27 85.5503 50.5 85.6803 50.92C85.7003 50.97 86.0703 52.19 86.1203 53.77C86.1803 55.93 85.5903 57.74 84.4203 59.01C84.2503 59.18 84.0303 59.27 83.8203 59.27Z" fill="#263852"/>
<path d="M88.0695 62.58L73.9095 57.26C73.5095 57.11 73.0695 57.3 72.8995 57.69L71.4995 61.02C71.4195 61.22 71.4195 61.44 71.4995 61.64C71.5895 61.84 71.7495 61.99 71.9495 62.07L87.4995 67.79C87.5895 67.82 87.6794 67.84 87.7694 67.84C87.9294 67.84 88.0895 67.79 88.2195 67.7C88.4295 67.55 88.5595 67.31 88.5595 67.05V63.32C88.5795 62.99 88.3695 62.7 88.0695 62.58Z" fill="#76CAD5" stroke="#263852" stroke-width="2" stroke-miterlimit="10"/>
<path d="M88.2999 52.54C87.6799 52.54 87.1699 52.03 87.1699 51.41C87.1699 50.79 87.6799 50.28 88.2999 50.28C88.9199 50.28 89.4299 50.79 89.4299 51.41C89.4299 52.03 88.9199 52.54 88.2999 52.54Z" fill="#263852"/>
<path d="M98.4599 52.32L95.6199 51.14C95.2499 52.88 96.5799 54.55 97.6199 55.15C97.6799 55.18 97.7399 55.21 97.7999 55.23C97.9899 55.28 98.1799 55.31 98.3699 55.31C98.4499 55.31 98.5399 55.3 98.6199 55.29C98.8399 54.59 98.9499 53.84 98.9499 53.05C98.9499 52.73 98.7499 52.45 98.4599 52.32Z" fill="#263852"/>
<path d="M18.1309 18.09C23.4609 21.02 29.5409 22.59 35.6209 22.61C41.0109 22.63 46.4109 21.46 51.7509 22.19C57.0909 22.92 62.6509 26.36 63.4309 31.69C63.9109 34.97 62.5009 38.21 62.0809 41.5C61.1809 48.54 65.4109 55.92 71.9209 58.71" stroke="#263852" stroke-width="2" stroke-miterlimit="10" stroke-linecap="round"/>
</svg>
