<svg width="115" height="115" viewBox="0 0 115 115" fill="none" xmlns="http://www.w3.org/2000/svg">
<rect width="115" height="115" fill="#EAEAEA"/>
<path d="M8.72031 98.74C7.53031 98.74 6.57031 97.78 6.57031 96.59V32.54C6.57031 31.35 7.53031 30.39 8.72031 30.39C9.91031 30.39 10.8703 31.35 10.8703 32.54V96.59C10.8703 97.78 9.91031 98.74 8.72031 98.74Z" fill="#DFDFDE" stroke="#263852" stroke-width="2"/>
<path d="M107.099 97.28C105.909 97.28 104.949 96.32 104.949 95.13V31.07C104.949 29.88 105.909 28.92 107.099 28.92C108.289 28.92 109.249 29.88 109.249 31.07V95.12C109.249 96.31 108.289 97.28 107.099 97.28Z" fill="#DFDFDE" stroke="#263852" stroke-width="2"/>
<path d="M104.939 37.49H10.8691V82.17H104.939V37.49Z" stroke="#263852" stroke-width="2"/>
<path d="M89.6907 37.49H25.9707V82.17H89.6907V37.49Z" stroke="#263852" stroke-width="2"/>
<path d="M25.9297 74.96L89.6597 75.08" stroke="#263852" stroke-width="2"/>
<path d="M26.0098 65.77L89.7298 65.89" stroke="#263852" stroke-width="2"/>
<path d="M26.0801 56.58L89.8101 56.7" stroke="#263852" stroke-width="2"/>
<path d="M26.1602 47.39L89.8802 47.51" stroke="#263852" stroke-width="2"/>
<path d="M36.1797 37.49V82.17" stroke="#263852" stroke-width="2"/>
<path d="M47.1309 37.49V82.17" stroke="#263852" stroke-width="2"/>
<path d="M58.0801 37.49V82.17" stroke="#263852" stroke-width="2"/>
<path d="M69.0293 37.49V82.17" stroke="#263852" stroke-width="2"/>
<path d="M79.9805 37.49V82.17" stroke="#263852" stroke-width="2"/>
<path d="M63.8409 49.62C73.0695 49.62 80.5509 42.1387 80.5509 32.91C80.5509 23.6813 73.0695 16.2 63.8409 16.2C54.6122 16.2 47.1309 23.6813 47.1309 32.91C47.1309 42.1387 54.6122 49.62 63.8409 49.62Z" fill="#CDDA56" stroke="#263953" stroke-width="2" stroke-linecap="round" stroke-linejoin="round"/>
<path d="M57.7402 48.14C57.7802 48.13 57.8202 48.12 57.8602 48.11C64.4702 46.57 69.3802 41.17 70.3402 34.52" stroke="#263852" stroke-width="2" stroke-linecap="round"/>
<path d="M62.1912 39.19C59.0812 37.74 56.4213 35.51 54.4513 32.66C52.4313 29.75 51.2613 26.39 51.0312 22.87" stroke="#263852" stroke-width="2" stroke-linecap="round"/>
<path d="M65.0204 34C59.6604 30.67 56.2804 25 55.9004 18.69" stroke="#263852" stroke-width="2" stroke-linecap="round"/>
<path d="M66.5801 49.12C71.8901 46.35 75.2301 40.99 75.3801 35.03" stroke="#263852" stroke-width="2" stroke-linecap="round"/>
<path d="M78.2002 25.27C75.4302 23.32 72.1802 22.29 68.7802 22.29C65.8502 22.29 63.0002 23.07 60.4902 24.54" stroke="#263852" stroke-width="2" stroke-linecap="round"/>
<path d="M80.2412 31.92C77.2812 29.39 73.5012 27.99 69.6012 27.99C67.5512 27.99 65.5712 28.36 63.7012 29.09" stroke="#263852" stroke-width="2" stroke-linecap="round"/>
</svg>
