<svg width="115" height="115" viewBox="0 0 115 115" fill="none" xmlns="http://www.w3.org/2000/svg">
<rect width="115" height="115" fill="#EAEAEA"/>
<g clip-path="url(#clip0)">
<path d="M70.5307 86.33L61.3207 77.12C60.8507 76.65 60.8507 75.89 61.3207 75.42L81.9207 54.82C86.7107 50.03 86.8607 42.23 82.1207 37.4C77.3307 32.52 69.4607 32.49 64.6407 37.31L43.9207 58.02C43.4507 58.49 42.6907 58.49 42.2207 58.02L33.0107 48.81C32.5407 48.34 32.5407 47.58 33.0107 47.11L53.5307 26.59C64.3707 15.75 82.0107 15.54 92.8807 26.35C103.751 37.16 103.771 54.79 92.9407 65.62L72.2307 86.33C71.7607 86.79 71.0007 86.79 70.5307 86.33Z" fill="#CBCBCA" stroke="#263852" stroke-width="2"/>
<path d="M52.1502 49.79L64.6302 37.31C69.4502 32.49 77.3202 32.51 82.1102 37.4C86.8502 42.24 86.7002 50.03 81.9102 54.82L69.5402 67.19L80.4502 78.1L92.9302 65.62C103.76 54.79 103.74 37.16 92.8702 26.35C82.0102 15.54 64.3702 15.75 53.5302 26.59L41.2402 38.89L52.1502 49.79Z" fill="#D35D47" stroke="#263852" stroke-width="2"/>
<path d="M38.0098 60.8L21.3998 60.82C21.0898 60.82 20.9398 61.19 21.1598 61.41L23.9498 64.2C24.1298 64.38 24.0598 64.68 23.8198 64.77L14.3498 68.15C13.9898 68.28 14.0798 68.82 14.4698 68.82H31.1498C31.4598 68.82 31.6098 68.45 31.3898 68.23L28.5298 65.37C28.3498 65.19 28.4198 64.89 28.6598 64.8L38.1298 61.46C38.4898 61.33 38.3998 60.8 38.0098 60.8Z" fill="#FDC13A" stroke="#1D3550" stroke-width="2" stroke-linecap="round"/>
<path d="M66.3398 88.95L49.7298 88.97C49.4198 88.97 49.2698 89.34 49.4898 89.56L52.2798 92.35C52.4598 92.53 52.3898 92.83 52.1498 92.92L42.6798 96.3C42.3198 96.43 42.4098 96.97 42.7998 96.97H59.4798C59.7898 96.97 59.9398 96.6 59.7198 96.38L56.8598 93.52C56.6798 93.34 56.7498 93.04 56.9898 92.95L66.4598 89.61C66.8198 89.49 66.7198 88.95 66.3398 88.95Z" fill="#FDC13A" stroke="#1D3550" stroke-width="2" stroke-linecap="round"/>
<path d="M92.9307 26.4C92.9107 26.38 92.8907 26.36 92.8707 26.34C82.0107 15.54 64.3707 15.75 53.5307 26.59L33.0107 47.11C32.5407 47.58 32.5407 48.34 33.0107 48.81L42.2207 58.02C42.6907 58.49 43.4507 58.49 43.9207 58.02L64.6307 37.31C69.4307 32.51 77.2307 32.52 82.0307 37.31L92.9307 26.4Z" fill="#DFDFDE" stroke="#263852" stroke-width="2"/>
<path d="M52.1502 49.79L64.6302 37.31C69.4302 32.51 77.2302 32.52 82.0302 37.31L92.9302 26.4C92.9102 26.38 92.8902 26.36 92.8702 26.34C82.0102 15.54 64.3702 15.75 53.5302 26.59L41.2402 38.89L52.1502 49.79Z" fill="#CDEBF2" stroke="#263852" stroke-width="2"/>
</g>
<defs>
<clipPath id="clip0">
<rect x="12" y="16" width="90.97" height="82.84" fill="white"/>
</clipPath>
</defs>
</svg>
